<svg xmlns="http://www.w3.org/2000/svg" width="24" height="24" viewBox="0 0 24 24">
    <g fill="none" fill-rule="evenodd">
        <g>
            <path d="M0 0H24V24H0z"/>
            <path fill="#8E8E8E" fill-rule="nonzero" d="M14.293 16.707c-.39-.39-.39-1.024 0-1.414.39-.39 1.024-.39 1.414 0l4 4c.39.39.39 1.024 0 1.414-.39.39-1.024.39-1.414 0l-4-4z" opacity=".4"/>
            <path fill="#8E8E8E" fill-rule="nonzero" d="M11 16c2.761 0 5-2.239 5-5s-2.239-5-5-5-5 2.239-5 5 2.239 5 5 5zm0 2c-3.866 0-7-3.134-7-7s3.134-7 7-7 7 3.134 7 7-3.134 7-7 7z"/>
        </g>
    </g>
</svg>
